/* XPM */
static char *result[] = {
/* columns rows colors chars-per-pixel */
"64 64 92 1 ",
"  c #02040B",
". c #06080E",
"X c #040710",
"o c #050915",
"O c #0B0D16",
"+ c #060C1C",
"@ c #0B0E1C",
"# c #0F1016",
"$ c #0D101E",
"% c #121316",
"& c #12141C",
"* c #17191E",
"= c #1B1B1D",
"- c #080E20",
"; c #0C1123",
": c #0B132B",
"> c #111425",
", c #161925",
"< c #1B1C25",
"1 c #12162A",
"2 c #15192C",
"3 c #1A1D2C",
"4 c #0C1632",
"5 c #0D1836",
"6 c #0F1A3B",
"7 c #151B33",
"8 c #1A1E32",
"9 c #191E3A",
"0 c #1E212C",
"q c #1D2134",
"w c #1D223B",
"e c #222224",
"r c #23242C",
"t c #26282F",
"y c #2A2A2D",
"u c #222533",
"i c #262835",
"p c #2B2D35",
"a c #22263A",
"s c #26293C",
"d c #2A2D3C",
"f c #2F3035",
"g c #2E303C",
"h c #323335",
"j c #32343C",
"k c #38393C",
"l c #0F1C42",
"z c #111E43",
"x c #1C2342",
"c c #15224A",
"v c #212640",
"b c #242942",
"n c #2A2E43",
"m c #2E3142",
"M c #2E3349",
"N c #333644",
"B c #363945",
"V c #3A3C44",
"C c #32364A",
"Z c #36394B",
"A c #3A3D4B",
"S c #3B3F52",
"D c #3F4046",
"F c #3F414C",
"G c #3D4151",
"H c #424346",
"J c #43444D",
"K c #47484E",
"L c #494A4D",
"P c #434552",
"I c #464954",
"U c #4B4C54",
"Y c #4B4D59",
"T c #4F5055",
"R c #4F515C",
"E c #525356",
"W c #54555B",
"Q c #58575E",
"! c #57585C",
"~ c #595A5D",
"^ c #535561",
"/ c #565860",
"( c #5B5C63",
") c #605F67",
"_ c #5F6066",
"` c #5E606A",
"' c #646469",
"] c #67686C",
"[ c #6B6B6D",
"{ c #676970",
"} c #6F6F70",
"| c #717171",
/* pixels */
"                                                                ",
"                                                                ",
"                                                                ",
"                                                                ",
"                                    e.                          ",
"                           .y       %.                          ",
"                            .                                   ",
"                                                                ",
"     h                                               y.         ",
"                                                     .          ",
"                                                                ",
"                                                                ",
"                    .h                                          ",
"                                                                ",
"                                                                ",
"                                                                ",
"                .   .                .    .   .         .       ",
"         o        X    .                            X         O ",
"    .   X X              X      X     Xo. X . X     X  X   .    ",
"       .     . X . X .    X X X X                     X       . ",
" X  . .   X X    XX X  XX XXX  X  X  X XXX XfO  . X  XX X  XX X ",
"X X   X X  X X .X    XX  X   X  X  X  X   X +  X    X    X   X X",
"XXXX XXX XXXXXXXXXXXX XXXXXXXXXXX X@XXX X X  X.X XXXXXX XX X XXX",
"XoooooXoooXXooXoXXXooooXoXXXoooooX&doXoooooooXoXoXXooXooooooooXo",
"+++@++O++o+Xoooq2ooooo+ooooooooo+ooooo+oOoo++o+ooX+++o++ooooooo+",
"@-@$$+++++++++--+++-++++-+-----++++++++++++++++++++++++++++--+--",
";;;:;;-;-++-+--+-------+-------------@3r0+++++----+++++------->:",
":;::;>>;::-:-:::-:-:;:-::-:--:---:-:,Vkhhf,;:;-::::-:::-:M:-41:1",
">,;>rffe,::::::::::::::::::::::::::;Djityyf>:::::::00,::::::9qq7",
"fpprttrty:4:44444444445544444444444tBu<00eye:44::0TW((j44447djdf",
"00u0r03rfy:555555565655144656646543pu3,,<0ey1555qWFGIT(N5557jpui",
"2333<,,0yf05666666llz5iVFB7l666662t,3,,,0=&=0066FFmmFJ~_w54ppu03",
">;$;>&&=eeee6lllllxcx0BipNA99lll5u0,>,>,e<%&ey3uTmssnBK/Kujhu32>",
";$$@$$&&====16zzcccczpdusgAHAs7ujp<,>;>>>>%@=ykBnsq8aNZJQLhir2>>",
"$$@O@@@%%%%%=e8zl9w99duusgADFKhHpq3>>>&;$&##=yVnsq87imNBTELu32$$",
"@OO@OO@##O##%ey9dBguu033issgNFUji3,>;;$$$O#&eVBiw7228idnAEQk21>$",
"p&OOOOO#O###%ehVFNpdu>>><0sgmKDgq32>&>@@@#><jHma871>13wanP!QV30h",
"WL,@@OOOOOOO&0kHFpudi3>0sgFTKNu0,,>>-$@@$$iLLAdw821>>13aNBU~!JEE",
"LTU<@OOOOOO$=hjjmsqqiddJJNNNNi3>>>>@$@>>>rTKANb971>;$>7anVPR!WLP",
"FFJLD3OO@@@,DVNmsq83u0ijjduiuq<>>$-@&@>rBKKZNsa871>$$12qsnBFIPNB",
"BBBJUTDHVt,fVjBFm372u0udkHNi33<3,>$<33iLEEWTnw9811>$$$28asnmANnm",
"bmmAABHJKEHVgW[)))d28330r0uur33330rBVjLTKJKUTa771>$;$>>28aasmbss",
"ainjsadnmNVNQ')RIY)s33>,>>,>,1,30iipBKEPVANAUK971-$$$$$12738a88q",
"83888uquaadJ})IPZZYY1>>$$$$$>>23gUETJABndNndNKN83;$$$$$$>1227337",
"2,3238qquwi))RSMnnZ)m1>$@@O@$>>H)WITQWNaw88usJTJAi>$$@&>23>,2222",
"1>,130q8wdQ]ISSnvxMZUN>$OOO@$>iQIJAFU)I877127NKKUDu,0r,gFVi2$>>,",
";>,NFDVds'[QSSZMxbbnZU1$$@O@$&ERNNCZJQ)s72118ddsNJVVULHHjduq2>>$",
"<3iFBBmB)})GMCCbwwxbCUR>$@@@$3)GbssnAF!W82>18q8uimLLDBNBi0221>$>",
"VDNBZgaI})YMbnb9999xnSQC2$$$<PQNaaaNBCI~Qu>>2323amHJNuaqq1;;;$>u",
"AmmmssI}'RSZb9a99999xCI(Qp>uQ)Rma89nNNNU(K1$$&>,0iJLBmi88>$$$$0N",
"nnd8aR})/YSCnwzw8789wnSGIYsQQYPn9889abnAW~j>@O&20iigpgjpr<$&>*hA",
"sqqq'{)^PSCnbvsnx877wbnSGPY)JNma7778q9bNKEQB$OO@,30<,r0r0*<pVNNN",
"28wI})YPMMMbbS))Qn779xvbSQ)Rmiw372278wdNFUWEf>OOOO@O@@@&0ppANndi",
"1S|}(RSZMbvbP')^Q)mnACxb))WAwu8222117qsmCAKEEH0$@OO..&0pDmgdd881",
"Q])^GAnbxvbC'QPFY))Q^)I^)IAmu882111128qsdnZJREL1>@O>*rtgg89qw22J",
"))YSCCnx9vMY[NmmBGIIPY)[PSna322211>11788asmZKEQTN1@,0utia98822Q[",
"RPSnMnb9wC))^a8uidmFJR))Bmiq833211>>111239anNAPQQVp,<rrq37>13U[)",
"Zbbxwx97sR)Am32212sssW(YCdq883221>>>-1>1179asNBPEEEH3,>>$>17Q))R",
"Cxw99878dPAa21111113BUINsq8883221>-$$>>>117wsbsmFUE!H>>$>3mD}^PP",
"vwz9777qsNi21111110BAANu28q83832>>>@$$-$>177qqqasNFWEU81N)[[)YMM",
"w9z97711732111>1>2di8ii1>2qqqq3,>>-@@@$$$11111178aBP^'QN[))ISZnx",
"w9w991111711111-1281>>1;;1328821>;$@O@-$>>11111789NY{''[))Innnvx",
"99998827777711>>1111>;;@@;>182,,>;$@@$$$->>-$>1178b]`^YYGJMvvvxw",
"xxxxxzwwxzxz77711217711>>>11932111111>;11111>11799A{`^SMbbxxxxxx"
};
