/* XPM */
static char *result[] = {
/* columns rows colors chars-per-pixel */
"64 64 94 2 ",
"   c #0E191C",
".  c #16201F",
"X  c #1E2C2E",
"o  c #1E2C32",
"O  c #1E3339",
"+  c #242C2C",
"@  c #292F2E",
"#  c #26302E",
"$  c #232E32",
"%  c #253235",
"&  c #2B3434",
"*  c #2D3936",
"=  c #26343A",
"-  c #2A363A",
";  c #26383F",
":  c #2C3A3D",
">  c #333234",
",  c #393636",
"<  c #313935",
"1  c #3A3A37",
"2  c #313539",
"3  c #333C3D",
"4  c #3B3D3D",
"5  c #453C3B",
"6  c #483F3E",
"7  c #15432F",
"8  c #194433",
"9  c #214033",
"0  c #224A36",
"q  c #27433A",
"w  c #2C443B",
"e  c #2A4A3D",
"r  c #35413E",
"t  c #3C423E",
"y  c #2D3C43",
"u  c #2E3F48",
"i  c #323E42",
"p  c #3A3E42",
"a  c #303F48",
"s  c #413E43",
"d  c #2A4C41",
"f  c #2F4149",
"g  c #344145",
"h  c #3B4344",
"j  c #374F46",
"k  c #3E4846",
"l  c #35444B",
"z  c #3A464A",
"x  c #354948",
"c  c #3C494D",
"v  c #2B5242",
"b  c #365145",
"n  c #35544A",
"m  c #3B534B",
"M  c #2E4851",
"N  c #354750",
"B  c #3B4750",
"V  c #364952",
"C  c #3D4B52",
"Z  c #3D4F58",
"A  c #3E5352",
"S  c #3F515A",
"D  c #424544",
"F  c #4A4543",
"G  c #434A46",
"H  c #414649",
"J  c #494748",
"K  c #434B4C",
"L  c #494B4B",
"P  c #47504F",
"I  c #4B514C",
"U  c #424E53",
"Y  c #494E51",
"T  c #455155",
"R  c #4A5355",
"E  c #425951",
"W  c #465359",
"Q  c #4A555A",
"!  c #4E585E",
"~  c #515456",
"^  c #5A5353",
"/  c #525856",
"(  c #51565A",
")  c #52595D",
"_  c #5A5C5D",
"`  c #625A57",
"'  c #475760",
"]  c #465961",
"[  c #4E5961",
"{  c #535C62",
"}  c #595E63",
"|  c #576066",
" . c #596066",
".. c #5B6169",
/* pixels */
"T R c $ 3 g g g z W S c / ) Q Y T K C & C g c g 3 g K h 0 e e d d v d 7 e x f : x T T c / ) Q T T K C & C g x g g g G h % c l g ",
"( { T y W { ! Q ! { ! c ! W Q W T Q T + c B x z T ! ! W e A x j T A n 8 R } ! Q ! } Q B ! W Q W T ! R $ c c B z T ! ! Q : k % ^ ",
"Q / T * U ! ) ) { ! K k Q T Q T T | W - C c P R ! T T W e R T U T E m 8 P ! ! ) ! ! T K ! U Q T T } W = c c L Q ) T U W i B ! ( ",
"R U c 3 h J J R Q T K c J z h i y g z - G h h G K g c c * U T Q T K j 9 k L R R / K k h K c c 3 : g z - G h h G K z z c : k T R ",
"/ _ / ~ D D K 2 z J ( R L 6 k @ D 4 K J h 3 1 h 4 L U ! ( ( Q C / _ R R H 6 L & s J ( T g c K & p p z : & p 3 1 4 L K ! ( ! Q z ",
"( ( T T R ( ! C ( _ / T ( ) Q l _ W ! W Q P T c K { ) { / } { Q ( / R T T ! W % _ _ / T & l Q l _ R Q l / / T c U { { ) / } { Q ",
"/ ! ! U Q { T g ) ) ! T U [ T c R T U W ! Q P K c [ ! ! ) ) { U / Q ! T W [ y X U  .! R g - W z T T U Q } Q K U g { ! ! ) ) { C ",
"z U U c U W C y T { ! Q T T C C C C c C T R C c i T T W C c C g c U U c C g - o : } Q Q c o y B U C c C Y W U z y Y W W C c C g ",
"C c l % K Y c z Y Y c z J T Y U z c Q & U U T ! T U c g K K U z c c i % K y X o g U U z h o % k z C Y - T U U ! T U c i D K U c ",
"{ [ Y l } { Q } [ ! Q U ! ! Q Q T U ! 2 } { | | Q Q Q c ( ) Q Q } [ U l } i : : c ! Q C T ; - T T U ! & } { } { Q Q Q c _ ) Q Q ",
"Q ! U r _ [ { { [ Q T K Q Q T ) W U W i { ! K R T W R U } ( Y T R ! K g ( T : = W Q T K R : X C Q T W : { ! P R U Q Y C { ) Y T ",
"c c k - h D K k K h g r J h h g U z l $ G k h h h c c : c T U l c c k : p D 2 & c k t g L g . : W h h % K k h z h C C i c T C l ",
"g T / Q J J k & F J I L D t t & > > t H G J h t > z J p h U C y g T ( / F 5 K * F J I L D 1 & + K p h z G J k t 2 g L g h T C : ",
"! [ ) ( ! } } U ` ( / R T ! Q : R T Q ! ! T R K p ..) { { } ) z ! ! ( _ ( } } U ` ! / Q T ( T % R U Q Q ( T T K z .._ ! ) } ! c ",
"{ ! ( _ ! ! } U _ / Q T T W C y ) ! ) { ! T U T g | } } ..{ { C { ) ! ( ! [ } U _ ) R T T W C f ) ! { { ) T T T z } } } ..{ [ C ",
"R R T ! T T T l ! T C c c C C y W W P W Q T Q U g T W W W U U z T R U ! T T T l ! T C C k C C : W T U W T T ! C z T Q W T U T c ",
"c z y 3 L K J K K z K h L R L L U Y U y ~ ~ Y Y Y T C U : U C c c c y g J K K J J k K h L Y R K U T U 3 ~ / R Y T T U U : Y C C ",
"[ [ W K T W T T ) Q W U { ! Q ! W T W - ) [ Q ! [ } ! ! l } W { ! [ Q K W W T T { Q W U ) ! ! ! T T T & ) ! ! Q [ } ! [ l { W ) ",
"U ! U h c U T Q ! Q T h Q ! T C T W Q i ! R R R W W W [ l ( W U U R K t c S T R ! W T D Q ! T c W Q Q y ( ! I T Y Q Q Q l { W W ",
"z U h g h r r h U k h h D h 3 - g i z = t K U D h c U T g U U z c U x 3 h 3 g g P h h g D h g - y h l & t G I h z c U T l U U z ",
"g T K K J h h % h I T / J 4 g % p 3 k g 2 g 2 1 , z R Q Y z H = g K K K L h h @ h L T L K p 3 * p > D g 3 h h , 4 K Q Q T K U - ",
"P T R R R ! Q : _ ( Q ( ! Q U c T W Q [ R I k k h C ( Y H B B u k k K T R Q Q : _ ! Q _ ! Q C B ! Q ! [ ! / U T k W } ) T ! W z ",
"K Q Q R R ! W :  .) _ T T Q ! c Q [ W S S z C S V Z C V N V Z a g c c U U ! T g  .) _ T W Q ! c T T R W ! Y U R z Q Q T W Q W C ",
"U R T C T T U ; Q T U g y c C l W f y f y y f f y u u y l a u a f V V y c U C % ) U C g : c W c W C z C c U C c z Q Q W U c Z z ",
"K T z f J c L K U Y C y h z z - V y z y = B y V u o Z o   a y o l B V - h B L H U T C y h U K l h g g % z U U c U z z - h z z g ",
"T W Q C { W ! [ ! Q Q i Q U T c V y W C a ' a Z M O Q a O U a = U C Z u ! U ! { { W ! g ! Q Q W W T T & Q Q T R Q U c c k c c C ",
"c c U k ! T R ! ! Q ! t Q R K U l = Q W U ' Z a Z y ' U N W U = W C T y K U Q ! ! Q R # 3 C T ! Q C B y ! T L I K Q K k z x p U ",
"g g g g D p g 3 c U K 2 H r : y S = W W a [ a U S a W a a W U a R C Z y 3 h 3 i K K g % - % r g g y h * G I K G k c T k h + $ y ",
"- g h U h , g @ 2 c c g k h - & W ; W W a Q U U S u U a N W W a Q C T a h 1 i + < h : g 3 < h * 2 2 g r * h G t t h D D 3 * X o ",
"T T K _ _ { Q g P R R R ( { C z V y W Y p Q p U S a B Z y W W B W U Z V ) ! Q i T Q ! R ) { ! c T T Q T Q P k K I ! T T T K K U ",
") R K Q } ! C y T Q ! / ! U c l V = Q U B Q U W ' N B W y W W z W U Z N } W U i W T ) / ! Q S c T T W T C h P k K Q ! I U R ! z ",
"Q R c c C U U g W W Q T T c c l Z y W W B W W R W N U B = W W a W B V y h C T y Q W ! T T c W z ! C S z y z ) c h c H K K z K l ",
"T Q c % : g g f c W T c R ! R c U a W ' W Q W W W u W U y W Y V W Y Z = + i y i z T T c / ! ! U T U C - c l z g g g k h - c l g ",
"( ) T : Q ) ! ! ! { Q z ! B K C a y W ' W Q a Z W a W W a W T u W U Z y C [ Q W ! } ! z ! W W W R R T @ c B z l T ! ! Q - k % ^ ",
"Q / T * U ! ( ) { ! U k T K T c ' y Q s s ' U U W a B W a W W a W U Z y g Q ( [ [ ! T G ! T ! T W } W % k c I R ) T U T i B ! ( ",
"R U k f h J J R ! K K k D 3 3 % N a W W a W a U Q a H U y W W N W U B u p J Y R / K k h c c h r : g z - P g h G K z c c : k T R ",
"/ _ R R J D K 2 z L ( R J 5 r + Z y W U N W B U W Z U U y W W l W U ] z h 4 H > s J ( T g c K & p p z - & p 3 1 4 K K ! ( ! Q z ",
") / R Y T [ Q C ( _ ! T Q ! T g Z y W W B U Z Z U a U U y Q Q N Q C W l K ! U $ _ ) ! R % l ! l _ R ' z / / U K U { { ) / } { Q ",
"Q ! ! Y Q { W g ) ) Q R U T c l a y W W N U a W a y W U u W W l W C W u U W : X U } ! R g % W z T T Y Q } Q K U g } ) ! ) ) { C ",
"k U U c U W c g T ( Q Q U U l V Z a ' a a U u Y a y Q a = W W y W U S y z y - o : _ ! Q c % : B U C c B U W U c 3 U W W C c C g ",
"C c g - K T c c R T c h G Y J z W a B V N V V B V N Z V f C Z N U T ' y h y X o r U U z h o % c h C Y - T U T Q T Y c i D K U c ",
"{ [ T l { { Q } ) ! Q C Q [ T T Z a a u u a l N l V l l l V l N V N u = { y - : c ! ! C T ; - T T U ! & } { } | Q W Q C _ ( Q Q ",
"/ ! c r _ } ) } ! Q T K Q Q T ( U B B = U U i c c c c g C c z l c z i i _ U : % W R U K R : X U Q W W : { ! I T U Q W c { ) Y T ",
"z C k : h D z k c D r r K h g 3 B p a $ D K 3 p p c z - z C U g g K g : p D < & c K g g J g . : Q g z % G k g h h C C i c T C l ",
"g T / ^ H J h > F J I L D 4 t & > > t h G k t 3 & z H 4 h c B - g U ( R F 5 K & F J I L t 1 & X K p h z D J k t 2 g J h h U C - ",
"Q { ) ) ( } } U ` ( / Q T ! Q - T U W Q ! P U K p ..) ) ! } ! z Q ) ) ! ( } } U ` ! ! / T ) T % R Y W Q ! T T P h ..{ ! { } ! c ",
"{ ! ! ( ! [ } C _ / R T U W C y ) ! ) { ! T K T g | } }  .{ [ c { ( ! _ ) [ } U _ ) Q T T W C g ) ! { { ) T T U c  .} | ..{ { C ",
"W R T ! T T W l ! T C c c C c y W Q U T R T ! U p T W T T U W l W R Y Q T T W l ( T C c c c c y W T U W R T ! U l T Q W T U T c ",
"c z y p K K J K K G K h L R Y L U Y C y ^ R T T I W C U : Y C z V z w g G K J K K k K h L Y Y U T T U : ~ / R T T R U U : Y C C ",
"! [ Q c T W T T { R W U { ! Q Q T T W - _ [ ! ! ) } ! ! l } Q ) ( { Q c W W W T { W Q K ) ! ! ! T T T & ) ! Q Q { } ! ! l { Q ( ",
"T R U h c C T Q ! Q T k Q ! W C T Q Q y ! ! R T T W Q Q l ) W U U ! K h c C T R ! Q T D Q ! T c W W Q y ( ! I T U Q R ! l { W T ",
"l T h g h p r t c k z h D z 2 - l i z & t k L G z B U W l U U C z U k r g p g h K h h h h h g - g p z & t G I h z z U W l U U B ",
"g K P K J h h % h K I R J 4 g & h 3 h z r h 3 1 4 J / Q W c U - h U P K L h h @ h I U Y D g 3 & p & D g 2 h h , 4 K R ! T K U : ",
"P R R R R ! Q y _ / ! ( ! Q T c R ! ! { ! / T I c W { ! Y Q W l U T R R R ! Q : } ( R _ ! Q T c R ! ! [ ! ( T T c Q ) ! T Q W z ",
"K ! R T W ! T :  .)  .R W Q ! c W T R W ! U T T c Q ! W W T Q C T ( R R T [ Q y } } } T W ! [ B R T Q W ! R U R c Q Q Q W Q W C ",
"U W T T T T U ; ( T C f g z W z Q B z C c U C c c Q Q T U c C z U W T C U U T % ! U K g : C T z W C z C c U c c z Q W W U C U l ",
"C W c i D U J U U U C y h c c g g z g o z U c K K c z i h z c i K U c y G U L H U T C i h U K g z g g % z U K c K z z - t k c g ",
"C W Q C { W ! ! ) Q Q p ! Q Q Q T U T & Q Q T T W U c c h c c c S Q ! C { W { [ ) Q ! g [ W ! W T T T & Q Q T R Q U C k c c c C ",
"c C K k Q Q Q ! Q ! / t / ! R ! Q C C y Q R G P K T K c h c c C c c K k R Q Q ! ! Q R # 3 C T ! Q C B y ! T P P K R K c c l i Y ",
"g g g p h p g 3 C U K : H h g i h : z & G I I G h K T k l h z j g l g g h z r 3 c U r % - % r g g y h * G I K J h C T k p @ o y ",
": g h K h , h @ - k c h K z 3 & > - 3 r 3 k G t t h G h h h g q q r k K D 4 p @ < h 3 g 3 < g * 3 2 t r * t G t t h D D 3 : X $ ",
"T T T ) ) [ Q i Y R R Q ( } T c T P Q T Q T k k K ! R T R R ! g A T T ) ( ) Q y T Q Q Q ( { { c T U W W ! P K k P ! T T P k K C ",
") R U R } ! U y Q R ) ( ! Q U C W S T S T P K K K T / R K R ! x T R c / | ! C g W T ) / ( Q T C T T W U c h T c K R ! I U R ) z ",
"R Q C k C T U g W W Q T W C T C Q T T B c c T c t z K G m b b v m E n n n A S y W W ! T T C T V ! C U B y c ) k h c K k K K c l "
};
