/* XPM */
static char *result[] = {
/* columns rows colors chars-per-pixel */
"64 64 189 2 ",
"   c #010202",
".  c #02070A",
"X  c #03090D",
"o  c #0B0B0B",
"O  c #040D13",
"+  c #0B0D15",
"@  c #0C0E1B",
"#  c #061017",
"$  c #0B1115",
"%  c #05131C",
"&  c #0C121D",
"*  c #0F191E",
"=  c #121213",
"-  c #1E1B15",
";  c #12141C",
":  c #14191D",
">  c #1A1B1C",
",  c #061721",
"<  c #0E1222",
"1  c #061925",
"2  c #0A1A25",
"3  c #071C29",
"4  c #091E2C",
"5  c #111424",
"6  c #151A24",
"7  c #1B1D25",
"8  c #12162A",
"9  c #15192C",
"0  c #1A1D2C",
"q  c #161B33",
"w  c #1A1E32",
"e  c #191E3A",
"r  c #0B202E",
"t  c #162025",
"y  c #1C2225",
"u  c #12222B",
"i  c #1E212C",
"p  c #1E282D",
"a  c #092333",
"s  c #0D2837",
"d  c #0B2739",
"f  c #0B2A3C",
"g  c #132530",
"h  c #1D2134",
"j  c #122936",
"k  c #1A2932",
"l  c #1D223B",
"z  c #122D3D",
"x  c #1A2D38",
"c  c #17303F",
"v  c #1E313C",
"b  c #222323",
"n  c #22242C",
"m  c #28262C",
"M  c #2A2B2D",
"N  c #222533",
"B  c #262934",
"V  c #2B2D35",
"C  c #22263A",
"Z  c #252A3C",
"A  c #2A2D3C",
"S  c #2D3235",
"D  c #283538",
"F  c #2E313C",
"G  c #323435",
"H  c #32333D",
"J  c #34393B",
"K  c #3A3A3C",
"L  c #403337",
"P  c #414136",
"I  c #4C503C",
"U  c #675737",
"Y  c #0C2E42",
"T  c #1F2540",
"R  c #112F41",
"E  c #0C3146",
"W  c #0D344B",
"Q  c #143244",
"!  c #1A3545",
"~  c #13364B",
"^  c #14384E",
"/  c #1B3A4D",
"(  c #0F3750",
")  c #0E3953",
"_  c #0F3D59",
"`  c #143C54",
"'  c #1A3D52",
"]  c #133F59",
"[  c #212640",
"{  c #252942",
"}  c #2A2E43",
"|  c #263542",
" . c #2E3142",
".. c #253946",
"X. c #2B3943",
"o. c #2F3348",
"O. c #233C4C",
"+. c #333644",
"@. c #363944",
"#. c #3A3C44",
"$. c #32364A",
"%. c #36394B",
"&. c #3A3D4B",
"*. c #3B3F51",
"=. c #573F45",
"-. c #0F405D",
";. c #1D4157",
":. c #14415D",
">. c #1B435C",
",. c #3D4246",
"<. c #3E414C",
"1. c #234356",
"2. c #2B4454",
"3. c #23465B",
"4. c #2C4A5C",
"5. c #3D4151",
"6. c #3B4A54",
"7. c #364A58",
"8. c #334C5C",
"9. c #375059",
"0. c #124361",
"q. c #1B4761",
"w. c #194A67",
"e. c #1C4A65",
"r. c #234B63",
"t. c #254E68",
"y. c #2E546A",
"u. c #325265",
"i. c #3C5664",
"p. c #2C5B77",
"a. c #315D77",
"s. c #385F77",
"d. c #376168",
"f. c #434345",
"g. c #43444D",
"h. c #47484E",
"j. c #494A4C",
"k. c #5E4449",
"l. c #434552",
"z. c #464854",
"x. c #4B4C54",
"c. c #4B4D59",
"v. c #4F5055",
"b. c #445058",
"n. c #4E525C",
"m. c #525356",
"M. c #53545B",
"N. c #58575E",
"B. c #57585D",
"V. c #5A5A5D",
"C. c #5B6453",
"Z. c #67694F",
"A. c #6A725D",
"S. c #485A6B",
"D. c #555661",
"F. c #555C62",
"G. c #5B5C63",
"H. c #605F67",
"J. c #5F6068",
"K. c #4C6674",
"L. c #446C72",
"P. c #4C6979",
"I. c #5A6670",
"U. c #566D7A",
"Y. c #47767D",
"T. c #626266",
"R. c #646469",
"E. c #67686C",
"W. c #6B6B6D",
"Q. c #6F6F70",
"!. c #717171",
"~. c #7E7E7E",
"^. c #90916B",
"/. c #376784",
"(. c #476E85",
"). c #42718D",
"_. c #587B86",
"`. c #7C8082",
"'. c #708C9C",
"]. c #7195A9",
"[. c #818384",
"{. c #8B8393",
"}. c #849FAD",
"|. c #9CADB6",
" X c #D2D3A3",
".X c #94B3C2",
"XX c #97B7C8",
"oX c #ADCBD9",
"OX c #BACAD2",
/* pixels */
"        = o       .                             o o   o                                                     o               .   ",
"      . d.:             . o                   o o                   o .                 . o .             o -                   ",
"        o o             - K .                 = = .         =     o - o                 o P o             o U o         o = -   ",
"                        = b       o = o     . j.K           o     . j.-         .         o o             o o           o V.j.. ",
"                o o       .       o R.o       = o                   o .       . > =               o o o             .     - -   ",
"                M j.o             o = o                                       o ~.>               = K o           = > o   o     ",
"                - b .                                       o =               o - =               o > o     . .   : L.o         ",
"                  o         o = o               o o         : Y.o               .       o > =       o       - =   o o           ",
"  o                         $ j.=               = M o       = y o         o o           > ^.P .           . $ o     .           ",
"o b $                       = > o             . M [.=       o o         $ f.=     .     b  XZ.o             .                   ",
"= W.= .   . . o + o   . .   o o . .   .   .   . = y O     X - O   .   . = `.: o X o o   $ G b o . . .         . .   . X o .   . ",
"O : O X . . . X I $ X . . . . . . . X . X . X . X X X . . : Y.t X . . X O y $ X > K $ X o $ # o . . . . X X X . o X X : y O . X ",
"X O X X X X X # = O X $ # X X X X X O O X X X . O O $ O O ; 9.: O X X X O O X O 7 k.# X X X X & & X X X . X X X X * # J F.$ X X ",
"O O O O $ # # O # # # p S # O # # # t t # O O O O : p : # # % $ O O O % : # O O & 6 # O O O O m k.# O O O O O O % B $ 2 6 # O O ",
"# O O % p 2 # # # # # D ,.% # O # % A.C.% # # # # u 6.B % O % O O O % t F.* O O # # # O O O # t b % O O O # # # $ * % # % O O # ",
"% # % * S.D % # % # % 2 2 % # % % * D J * % # % % r ,.D , O % % % # % 2 k 2 % # # % # % % % % % , % % % % * % % % % # % % # % # ",
"% % % , u u % % % % % % % % % % % 1 u 2 % % % % % 6 k u % % % % % % % , 3 % , % , % , % % % , % % % , % % u u , % % % 2 , % , % ",
", , , , 2 r 2 2 2 , 1 1 1 1 1 % , , 1 % % 1 % 3 2 4 4 2 , , , , , , , , , , , , , , , , 4 1 , , , , , , 2 r u , , , 3 k X., , , ",
"1 1 1 3 x ..u 4 ..r 1 1 1 , 1 1 3 1 1 1 3 , 3 r D x 3 1 3 , 3 , 1 1 1 1 1 1 1 1 3 , , 2 ..r 1 1 1 , 3 3 3 , 4 4 3 , 3 u g , 3 3 ",
"3 3 3 a S.|...r r r 3 3 r 3 3 3 3 3 3 3 3 3 3 r 9.2.4 3 4 3 3 3 3 3 3 3 3 3 3 3 3 4 4 4 r r 3 3 3 3 3 3 3 3 4 3 4 3 3 4 4 3 3 3 ",
"3 r 4 s K.OX2.4 r r r 3 4 3 r 3 3 r r r r r 3 r j j r 4 4 4 4 4 3 r r 4 4 4 4 4 4 4 4 3 r 3 r 4 4 4 4 4 4 4 3 3 4 4 4 4 4 3 r 3 ",
"r r r a ..7.c r a r r a a r a r r a r s r r r a a a r a a 4 a 4 d Q z a r r a r r a a a a r a r a 4 r 4 a a r r a r r r a 3 a a ",
"f a a a s s a a a d c d a a a a a a c / f a a a a a f d a a a a s U.O.d a a a a d s f a a a d a a a a d d s a a a a d d d a d z ",
"/ d d d d d d d d f P.E f a d d d d ~ U.E d d a d s Q E f d d d f ! c d d a d d f ! 4.s a d d s d d d d / / f d d a f 2.s d s u.",
"4.f f d f Y f s f Y ! Y d f f f f f f ~ R d f f d f 4.4.Y d d d f f f d f d f f f Q 1.Y f f Q / E f d f P.P.Y d f d f E E d E _.",
"~ f Y f Q 3.' Y Y f Y Y Y f ~ ' E f f f Y f Y Y f Y ^ ^ Y Y Y f f Y Y f Y W / E Y Y E f f Y / './ Y f E ^ ^ Y Y f Y f Y f f R ' ",
"E Y Y Y ' }.8.! R Y Y Y Y E 3.{.;.E E E E Y ~ ' E E E ~ Y Y Y Y E Y Y Y E u._.~ Y Y Y Y Y Y ^ ;.~ Y Y Y E Q Y Y Y Y Y E E Y Y E ",
"E E E E / g.#.G G S Q E E E ;.S.^ E E ;.` E ' (.^ E E E W W Y Y E E E E E 3.u.^ W Y W E ^ E W W E E E E E E E E E E E ) ;.^ E E ",
"W W W W <.F V m M V S ~ W W W ;.~ W ^ i.i.^ ` ' ^ W W ' >.' Q ~ W Q W Q D D V B E E W ` t.;.W W W W W W W ^ ` W W W ^ r.].` W W ",
"W W W ..@.N 0 0 b n M B W W ( W E ;.n.G.V.V.6.` W W ^ e.U.J V G S S B n N m i B D W ` r.XXe.) W W W W W ) 3.s.;.W W ( >.y.` W W ",
") ) W D N 0 6 6 7 7 b m W ) ) ) ^ M.g.<.x.n.C.6.) ) ) 1.G V N B h h N i m n 7 n V D ) >.(.e.) ) ) W ) ) _ a..X>.) ) ( ) :.) ) ) ",
") ) p 6 7 6 6 6 7 7 : 7 b ~ ) ` 9.g. . .<.l.D.H.;.) ) ..V N w 0 6 0 0 0 6 6 6 i M S v :.:.:.) ) _ _ _ _ ] e.u.&.g.2.] q.>.) ) _ ",
"` A 7 6 6 8 8 8 7 7 ; > b M ~ ..x. .Z C } @.l.V.b...@.G N 0 9 5 < < @ < < 5 ; 6 7 b m n ] _ -._ -.t.a.w.] ' +.V Z @.7.].p.] _ _ ",
"+.V 0 5 5 5 ; 5 6 ; @ = > M K @. .Z h w C +.&.5.M.j.G B 0 9 5 < < < @ @ @ < ; ; > > > > g W -.-.0.).oX/.0.X.V N Z F &.K.i.1.-.' ",
"B h 0 5 ; < 5 @ ; @ + ; > V #.A C h w w N +.+.@.x.m.j.N 0 9 5 < < @ @ + @ @ @ = ; = ; = > b ! -.w./.OX/.' A B N V } &.=.<.h.O.=.",
"B 0 9 5 < < < < @ @ + : 0 K @.Z l w q 6 0 C A } &.M.V.H 0 8 < ; @ @ + @ + + + @ + + = = ; b B :.w.%.J | C n 9 9 N V V Z +.<.x.| ",
"N 0 9 5 5 @ < @ @ @ ; 7 H g.F C h q 8 5 8 w h C F l.N.V.#.0 0 G V & + + + + + + + + + + ; b G #.l.@.A A n < 5 5 9 w Z A  .h.&.S ",
"9 5 6 @ < < @ @ @ 5 B j.x.@.} l q q 5 < < 9 w C +.@.z.V.V.h.m.m.M.h.0 + @ + @ + + + + + ; 7 K f.<.F N A V 0 5 N V Z =.v.h.+.B 0 ",
"5 5 < @ @ @ < 5 5 N v.h.&.+.Z l q q 5 < < 5 0 C  .@.l.m.V.M.l.g.x.m.x.6 @ + + + @ + + * 7 G H +.F Z h h C V C g.g.@.+.+.+.B 0 6 ",
"5 < < @ @ ; 8 i K h.j.@.+.{ l q q 8 < < < < 9 C Z o.$.<.z.l.+.+.f.&.<.l.=.7 + @ @ @ @ 7 L #.H A Z h w 0 N n B H +.A N B N h 9 6 ",
"6 5 < 0 i 9 N h.M.v.m.v. .l l q 8 8 < < < < 8 e C Z } o.&.@.} +.+.+.@.l.x.m.,.h.#.B 6 V #.H +.g. .q q q h h h V @.=.H B 0 0 0 6 ",
"0 i n +.=.V h.x.l.6.l.x.x.Z q q 8 < < @ < < 5 9 w l C Z o.Z C Z Z +. .&.#.@.<.f.j.m.f.#.+.M.E.R.H.H.A 0 i 0 0 n i 0 N N N 0 0 0 ",
"m B B V @.h.m.l.@.=.@.&.x.h.h 9 8 < @ < < < < 5 9 w q w h w h h N C A +.C C C  .A @.#.H D.E.F.n.z.c.H.C 0 0 8 6 < 5 8 6 9 8 9 i ",
"H x.m.v.g.&.@. .} A } } +.h.o.h 9 < @ < @ @ @ 5 5 8 8 9 0 q 0 q w w 0 w h N N h C C A g.Q.G.c.l.%.%.c.v.8 5 5 @ & @ & < 5 5 8 n ",
"H.M.c.x.V.M. .C w e w N Z g.x.f.#.N 5 @ @ @ 5 5 8 q < 6 8 9 9 9 9 9 6 9 q w 0 h C N N T.T.c.*.o.} } %.H.A 8 < < + + @ @ @ 5 5 =.",
"z.l.@.5.x.G.x.l q q 9 9 q +.x.x.v.#.B 7 i n 7 A =.@.C 6 < 5 6 5 6 5 8 8 0 N h h C Z N.E.c.5.*.} [ [ o.%.c.+.< < @ + O @ @ 5 N F.",
"+.+.+.@.g.B.T.C q 9 5 6 w A A Z +.h.@.#.x.h.=.&.H F C h 9 5 5 < 5 5 8 | g.&.@.A Z E.E.G.%.*.*.o.T T { } %.c.8 < @ @ + @ + 5 m.c.",
"Z { Z o.&.<.M.M.e q 5 8 0 h w N C  .h.x.#.@.+.J N n 9 9 9 < 5 @ 6 0 B =.@.@. .#.G.!.T.5.o.$.o.[ l l T { o.c.c.8 @ @ @ @ @ 7 G.l.",
"C l C +.@.$.l.V.V.N 5 5 9 9 9 0 C A =.g.+.C C h w 8 5 < 5 @ 5 B #.#.+.&.@.} l c.Q.H.c.o.{ { { e e e e T { *.D.$.9 < < @ 0 h.N.+.",
"C l e } +. .%.x.V.x.8 < < < < 5 0 V &.x.#.A V w w 5 < @ @ @ n +.@.+.+.} Z C z.Q.E.c.*.%.{ T [ e e e e e T o.z.D.N.A 5 N M.H.n.} ",
"w q w h Z Z { &.M.V.J < < @ @ 5 5 i m F V S H V m 7 @ @ 5 5 H @.} A A w C M.Q.I.D.c.*.$.{ [ l l e e e e T o.*.*.c.c.C G.N.c.z.} ",
"q q q q l l Z +.l.M.V.K < < < 5 ; 6 8 6 5 n 0 n 7 6 0 V #.+.@.@.Z C w e T.Q.G.D.l.%.$.o.{ [ { { e q q e e [ o.*.=.7.c.G.=.+.F C ",
"q q 8 q q l } +.&.x.M.n.V 5 @ 5 5 < ; @ @ @ ; : n V V #.@.A Z C 9 w e c.Q.R.n.l.$.o.o.{ { &.G.R.D.} q q e T T { *.D.H.n.} Z h 0 ",
"9 8 8 8 q h Z  .$.<.l.b.m.f.0 5 < < < @ @ ; 7 V #.H  .A A w w 8 q &.Q.Q.D.c.*.$.} { [ [ l.E.H.D.N.H.o.} %.$.T { T.H.M.@.l l w 9 ",
"8 8 8 8 9 w h C A  .@.=.v.V.j.8 5 < @ @ : n B V } w w w l 9 0 h.N.E.T.D.*.*.} [ T T [ %.E.D.l.&.c.G.J.D.D.D.c.D.G.c.@.+.h w w 9 ",
"9 8 8 8 8 q w h l Z +.%.g.m.V.x.H 5 5 ; i N B B C l e w q 9 N.E.T.G.c.*.%.$.} [ e [ o.n.E.@.F } +.=.l.z.c.c.H.W.l.*.} C g w 9 9 ",
"8 8 5 < 8 9 9 9 w h l }  .&.l.V.B.#.B 6 7 n m h q 9 5 8 e z.W.G.n.l.*.} } { { l l %.G.R.D.C w C C V +.&.=.c.H.G.%.} C h 0 0 9 9 ",
"8 5 < < < 5 9 F &.+.h Z } +.$.g.v.M.m.f.0 6 5 5 5 5 8 q D.R.G.n.%.{ { T T T e e { M.H.&.} 0 9 8 9 q V C { M.H.c.+.A h h w 0 9 9 ",
"8 5 < < < < &.#. .<.@.l Z Z Z  .<.x.m.M.#.8 5 < 5 0 } &.W.G.l.l.$.T e e e e q q A z.@.C 0 8 8 8 5 8 8 0 $.c.z.+.Z h w w 0 0 0 9 ",
"8 5 < @ 5 F #.N h S l.h h h h Z Z +.&.<.z.x.A 8 +.T.E.Q.T.c.o.o.[ T e e q q q w C @.C q 8 8 8 5 8 8 N @.@.&.+.N 9 q h w w w 0 9 ",
"5 < < @ S +.N 9 5 w @.N q 9 9 q q C &.G.T.G.T.&.E.R.G.z.%.%.} [ e T T T { } @.&.+.h 9 8 8 8 8 8 8 q V C w V C 9 5 0 w w h h 0 9 ",
"5 < 6 H +.N 0 8 < 0 F <.C 5 8 9 q C c.D.&. .&.m.V.G.c.o.} } [ T $.D.c.=.*.l.@.} &.Z 8 8 8 8 < 8 < 9 0 8 < 8 5 < < 8 q w w w 9 5 ",
"5 0 #.@.S 9 < < < 9 h h @.w 8 8 A D.m.5.C h } l.c.l.o.C { *.z.z.D.n.c.l.A } +.C A +.q q 8 8 8 < 5 8 8 8 < < @ 5 8 5 5 8 0 0 9 5 ",
"5 H +.N i 5 < 5 5 < 5 i V @.6 < l.+.} Z w h A g.l.C q w &.z.&.%.5.$.}  .C 0 w w N } o.w 8 < < 8 5 5 5 5 5 5 n #.@.V 5 ; @ 8 5 5 "
};
