/* XPM */
static char *result[] = {
/* columns rows colors chars-per-pixel */
"64 64 84 1 ",
"  c #0B0D16",
". c #0C0E1C",
"X c #0F1016",
"o c #0E101E",
"O c #121316",
"+ c #12141C",
"@ c #17181D",
"# c #1B1B1D",
"$ c #0F1222",
"% c #111424",
"& c #161825",
"* c #1A1C25",
"= c #12162A",
"- c #16192C",
"; c #1A1D2C",
": c #161B33",
"> c #1A1E32",
", c #171D38",
"< c #191E3A",
"1 c #1F2026",
"2 c #1E202C",
"3 c #1D2134",
"4 c #1D223B",
"5 c #222224",
"6 c #22242D",
"7 c #26282B",
"8 c #2A2B2D",
"9 c #222533",
"0 c #262935",
"q c #2A2C34",
"w c #22263A",
"e c #26293C",
"r c #2A2D3C",
"t c #2F3035",
"y c #2E313C",
"u c #313235",
"i c #33343D",
"p c #37393D",
"a c #393A3C",
"s c #212640",
"d c #252A42",
"f c #2A2E43",
"g c #2E3143",
"h c #2E3348",
"j c #323543",
"k c #363845",
"l c #3B3C44",
"z c #32364A",
"x c #36394A",
"c c #3B3D4B",
"v c #3B3F50",
"b c #3D4146",
"n c #3E414C",
"m c #3E4151",
"M c #424346",
"N c #43444D",
"B c #47484E",
"V c #494A4D",
"C c #434552",
"Z c #464853",
"A c #4B4C54",
"S c #474A58",
"D c #4C4D5A",
"F c #4F5054",
"G c #4E505B",
"H c #535356",
"J c #53545B",
"K c #57585C",
"L c #5A5A5D",
"P c #555760",
"I c #575861",
"U c #5C5D63",
"Y c #605F66",
"T c #5F6064",
"R c #5F6068",
"E c #616166",
"W c #646469",
"Q c #68676D",
"! c #67686C",
"~ c #6A6B6D",
"^ c #6E6E71",
"/ c #6F7070",
"( c #717171",
") c None",
/* pixels */
"))))))))))))))))))))))))))))))))))))))))))))))))))))))))))))))))",
"))))))))))))))))))))))))))))))))))))))))))))))))))))))))))))))))",
"))))))laaa))))))))))))))))))))))))))))))))))))))))))))))))))))))",
")))))Muqqu))))))))))))))))))))))))))))i)))))))))))))))))))))))))",
"))))Ni0788u)))))))))))))))))))))))))tttt))))))))))))))))))))))))",
"))))b06678t))))))))TTT)))))))autuu))0767q)))))))))))))))))))))))",
"))))i9;*1588))))))LKKTL))))))iqiuqq70729q)))))))))))))))))))))))",
")))pq;*&*158)))))KSNAJE)))))at0093026626u)))))))))))))))))))))))",
"))qq6;%&*1*5)))))GxcNDLL))))i062*29;6*&6qu))))))))))))))))))))))",
"))7*;&&&**@#7)))KngjnCKT)))aq63;-;;;&&&688)))))))))))))lV)))))))",
"));&%%%&1*O@58))JkrrjcGT)))a92--%%+%%%&&588)))))))))))lriM))))))",
")q5&%%%&;*+@#8)MZfwwrkNJKlli6;-%%%oo$++@*555))))))))))j0rjN)))))",
"aq*&%%%%&*+O#8aMke43wjcZKMuq2-%%$$..o++&@###)))))))))ir0ern)))))",
"i0*&%$%$%+ X*8aiew3>wjkcHHp72-%$$... .++@@@@#))))))))iq0qilNAV)n",
"09;%%$$$+X X&8lrw4>>ejjjFHV9;-%o.....XX+OOOO##)))))))rq9ercnMAbb",
"0;;%$$%$$  O*ulrw>--9rjgCHHq;=$o..... X XXOO#58)))l)qq2;erjjcNVp",
"0;-%$$$...++1Mke4>-=-wrdxHLl;-$o...     X XO#58))ktr02--9e0ejcAi",
"9;=%$$$...+%tNjw<-===3wegZLHr=&1=.         OO5ulnkrr9%$%>69wrNNi",
";;=%%.....&qlngw3:=$%;34gcHLA9aHB2.         O5uMNj0r6$$%;3gllNjq",
";%%%$$.o.+8MAlf3>-=$$-;wgxZYHVHHHB% .      XO1aMby9yq;%20ynFNk02",
"%%%$..$.+&NANxd3,==$$=>wgxBPLHHAHHMX       X+6alkr30rq2lllCACr2=",
"%%oo$.%%&qHNlge<:-%$$%>3gxNHKKCnZFH2o       1iiire>3qerNnjyri0;&",
"+%$...%*0lNxzfw<:=$$$%-wfjcNFAjlNnBNq+    .&aliyr33>99qiyy9r03-%",
"%o..%$;qAKHngw4<:=$$o%-3edhxNngjclnFHi+&ooo1Mliy93:;>29jlj0922*&",
"&%o*1;9MKHKFf4<>==$$$%=>wedjcxdgkklNFFMBM1&rMiyje>:-929qaNj0;;;&",
"&&&rt0kHFVAHN<>:=%$o$$=><edfkgeggjjnNNFFHVaaykY^Qn-;>>20qitr2;;;",
"260plkAFCNNAHe::=$$$$$%-><wefeweeyfckjlcNAMajYQYYQc-22-22;292;;2",
"600ylNHAnnknDn>:=$$.o$$=>>>3w4w3wegkrerjjlMkVQYJDJY>2-&&&&&;;-&2",
"90qriNAnjxjkNAw-=.ooooo$=-->>3>>>9wr0wwrdgkjQYPDmCYz--&%+%%%&=&2",
"rAJHnckgygggjVg3-$oo.oo$$-=;;>-;>9>>>999w0yM^YDCxxDG-=&o..oo%%-2",
"LYJHLNgdeeefgBNgw-o.o.o$$$&---->>-;;;>33w4wJQICvhhmY-%%....o%%=0",
"YGAAKKgw<>>30nHNlr%oooo$3;$&%----&--;>>3w40QYDvhffzYk=%.. ..o%%V",
"JCcCFYn4,-=:>kFAVk2&%&$9cl0%$%===%&--;>>34B~GCvdsdhmJr$$.  ..$:U",
"CvkcAYJ>:-=->gnnFBr2ua0llie2%%%=%%=&0r0>4n/WmmvfsshhCn$$.  ..$lI",
"jkkcNKY9:=%->ryrkNliFVNMiyw3&%%$%$%yNnkew!~UmmxhssdfxS=$.   .%HH",
"fffjvAYn:=%&>0werkNBNMlMr03>>$$%%%;NccklD/RDzxxhs4sdzDy$.. ..&UC",
"esefcnJK4=%=;>>3egBVlkji02==-$$%;9rlljflR/Rmhhhs<<<dhSK-$.. .;LN",
"w4wjxxAYA>$%>>->eyNNjrr99=$%$$$-qiiclgwk~QGhfhd4<<<shmUs$$..%lPk",
"e4wzzjNLYy%%%&-&9rNNi434:$$o$.%qNNjkjeeU~UChssd<<<<sdvGCe$$$0IJj",
"w43fjjkAUm=$o$$&;qNFlew>:%$..$2iMjjfreZ(QPmzd44<<<<sszSUL0%2HYGf",
"w:>efffCUK2$ooo$&0lllli09&+..$qlgfrw4rR~RSmzfs4<,,,<<hmDJB&nWIGg",
"<::<refcHLk%$oo+%10rqqir7;.+&&icgfr3wR/WIDmzd444,,,<shvmZDyYJDCf",
">:::43ejAJHq$$$%%&&**06q5&@9rrilde4>P^QISmxhds4s,:,,<dhvCCZYZcjd",
">:-:>4fzcHKV%o$$%+&++*&***6iMkjjw3,r^~IDmhhhdshzs,,<<shzvCPINje3",
":==:>wrjcDJH0o$%%+$+o+++*7qlkfrr;:,S~!GCzhhsdzIUJd::<ssdvGYPje9>",
"::=:>4djnZFJV0$$$$o.. +*iljlfew;-3A!!USmhhfshI~QYD>:<s<sDYYNew>;",
"-===>3efkcCHHM2$$$o  +1qcrrfr>>=:A(^UDvzfdssSQUPJYzfvzsdQYJx93>-",
"-==-->wefgnNHHl=$$o..10yj94>w-=0c!~UCchdssshURGCDYYPYUzmQDmj3>>-",
"====-33wefxnFKH*=$.+&60qr>><>-9YQQYDvxds<sdvQGnkAYYIGIPYICjg>>::",
"-=$=--:3wejxZJLB0%o%100r444>>-HQYYDvxxds<sfD^lfjxNDAZDY^Smge2;--",
"==$==--33wrjnZJTF2%%160044---eQQYPChzzds<dCYYrerfjknCDQYvkew>;;-",
"=$=$==--:34dgxNKLMt**962--==-FQYGCvhfdd4szYYGe>40rgnCGQIxfw>>;--",
":==o=$=;rr3wgzxFJHFu&**&%%=-NQYPmzhsss4<sSQDc>;;;9gkcJYGcgw>>;:-",
"=$$o$=;nNn4wrghnDHHV6$$$$$=2QYPDzsss4<<,dJIkw-===-9>9GPDgr>>;;--",
"==$$$$knlNk4dyrhCAHJj%$$$=>j~YSZhs<<<::>fDme:=======gDAlr93>;;--",
"=$$oo-ny4kn4w4wykCVAN6==-MYY~Jvvhs<<<::2rcf2====%==eCClf>>>>;;;-",
"=$oo%yb33ym43334ejknZDf=lQQQQDzhs<<<<,:<ejw-=====%9klljw=>3>>2;;",
"=$oo0ny220b32-:34exD^^Y0YQQIDmfss<444<0j0e;====%%;rgejr>=>3>>>;-",
"$%oope2-$-he===:<4mQIGYHQYIChzds<sddkzCmc>======%>r2-93%$:>39>;=",
"%%+0p32-$2yb3===:9ZInkNJYYDhffs4hSDmmZlgns-===$$$;9%%%=$$=;>3>-=",
"%+rni3-%$2ejk===>cPDjwgAGJmdffdsGPGZhkhejg--==$==-:$$$$$$$=->--=",
"%-bby-o+$223b2$=rJGme3fBACzsdcDDPDSCffjefk>:===$$===%$$%%%%=>>-%",
"%qbe3%$$$$=2yy=%Cmlf33emZg44gDZADvccd3eeejf:=$$====%%%%ij2$+%;%%",
"%py32=$$$$%2rk2%Cgew>3rmB4>;NCkjczdd9--&>rj4==$=$$%%%%0lia&$o%$+"
};
