/* XPM */
static char *result[] = {
/* columns rows colors chars-per-pixel */
"64 64 202 2 ",
"   c #1F1207",
".  c #231207",
"X  c #291307",
"o  c #221309",
"O  c #2A160A",
"+  c #2D190C",
"@  c #30170A",
"#  c #331C0D",
"$  c #3A1E0E",
"%  c #3A210F",
"&  c #3D2312",
"*  c #3D3C27",
"=  c #3E3E29",
"-  c #41220F",
";  c #422613",
":  c #492713",
">  c #452915",
",  c #4A2B16",
"<  c #472B19",
"1  c #4D2E18",
"2  c #502F17",
"3  c #502F18",
"4  c #4F3019",
"5  c #533017",
"6  c #53321A",
"7  c #59361C",
"8  c #5D381E",
"9  c #61361A",
"0  c #64391D",
"q  c #6A3D1E",
"w  c #453E26",
"e  c #453F28",
"r  c #5E3B21",
"t  c #633D21",
"y  c #693E21",
"u  c #474027",
"i  c #46422A",
"p  c #4A442C",
"a  c #4E482F",
"s  c #534429",
"d  c #58462A",
"f  c #55492E",
"g  c #59492D",
"h  c #4E4B31",
"j  c #524D32",
"k  c #5B4D31",
"l  c #5A483C",
"z  c #555134",
"x  c #5C5335",
"c  c #54513B",
"v  c #5D5639",
"b  c #5E583C",
"n  c #664025",
"m  c #6C4123",
"M  c #65442C",
"N  c #6B452C",
"B  c #6E492F",
"V  c #734323",
"C  c #794625",
"Z  c #734827",
"A  c #764A2A",
"S  c #7B4D2B",
"D  c #7F502C",
"F  c #6B4730",
"G  c #6D4B34",
"H  c #6F4E38",
"J  c #744D33",
"K  c #784E32",
"L  c #714F38",
"P  c #625636",
"I  c #665737",
"U  c #6E5434",
"Y  c #655B3A",
"T  c #6C5D3C",
"R  c #725635",
"E  c #7D5132",
"W  c #745836",
"Q  c #74533D",
"!  c #735B3A",
"~  c #7C583B",
"^  c #7C5C3C",
"/  c #65603E",
"(  c #6C613E",
")  c #72613E",
"_  c #7B653F",
"`  c #655F41",
"'  c #6C5F40",
"]  c #7C5C41",
"[  c #785B48",
"{  c #676140",
"}  c #6C6341",
"|  c #6D644A",
" . c #736542",
".. c #7D6243",
"X. c #736945",
"o. c #796A46",
"O. c #786749",
"+. c #756C4C",
"@. c #7A6D4A",
"#. c #7B714D",
"$. c #7C6454",
"%. c #766E51",
"&. c #7E685A",
"*. c #757153",
"=. c #7A7354",
"-. c #7B7459",
";. c #7C7A5E",
":. c #7F7E60",
">. c #804F2B",
",. c #83522E",
"<. c #88552F",
"1. c #845433",
"2. c #8A5631",
"3. c #865837",
"4. c #8D5934",
"5. c #845739",
"6. c #855A3B",
"7. c #8C5C3B",
"8. c #935D35",
"9. c #925E3A",
"0. c #985F38",
"q. c #82623F",
"w. c #8D603F",
"e. c #966036",
"r. c #986036",
"t. c #94623D",
"y. c #9B633C",
"u. c #845D43",
"i. c #8B5F42",
"p. c #905F43",
"a. c #836544",
"s. c #8C6242",
"d. c #836945",
"f. c #826749",
"g. c #856D4C",
"h. c #886E4A",
"j. c #926342",
"k. c #9B6642",
"l. c #9D6945",
"z. c #966748",
"x. c #956A4D",
"c. c #9C6C4B",
"v. c #82724D",
"b. c #836F51",
"n. c #926950",
"m. c #9E6F50",
"M. c #827453",
"N. c #81745A",
"B. c #9A745B",
"V. c #A26B44",
"C. c #A26D4A",
"Z. c #A96F48",
"A. c #AC7147",
"S. c #A5714D",
"D. c #AC734C",
"F. c #B0754E",
"G. c #A47352",
"H. c #AB7551",
"J. c #AD7955",
"K. c #A57758",
"L. c #AC7B5A",
"P. c #B17751",
"I. c #B27A53",
"U. c #BB7D53",
"Y. c #B37D59",
"T. c #B87E59",
"R. c #817E61",
"E. c #AF7F60",
"W. c #BC8156",
"Q. c #B7815B",
"!. c #BB835C",
"~. c #838263",
"^. c #888363",
"/. c #8B8769",
"(. c #8F8A69",
"). c #998E6E",
"_. c #949074",
"`. c #9C9673",
"'. c #AB8266",
"]. c #AC876F",
"[. c #B48363",
"{. c #BA8663",
"}. c #BD8966",
"|. c #B48769",
" X c #BB8C6C",
".X c #B58C71",
"XX c #BC8E71",
"oX c #B5947D",
"OX c #BD9579",
"+X c #C08359",
"@X c #C18965",
"#X c #C4926E",
"$X c #C19373",
"%X c #C39779",
"&X c #B79A87",
"*X c #BD9B84",
"=X c #BCA18E",
"-X c #C69D82",
";X c #CAA185",
":X c #C4A58F",
">X c #CAA48A",
",X c #C9AA95",
/* pixels */
"  o o o o o o o o o . o o o o o o o o o o o o o o o o o O o o o o o o o o   o o o o o o o o o o o   o o   o o o o o o o o o     ",
"o l &.$.[ [ [ H Q H H Q H G G G G F F B N B N F F N F N F y F N F t M M M M M M M N F M F M M M F M F G M M M M M t r t n m >   ",
"o $.=X&XoX].'.E.L.L.K.K.G.G.G.S.G.C.l.k.z.j.j.j.9.i.7.j.p.p.7.i.6.5.5.5.5.5.6.6.6.6.6.u.^ 6.6.6.6.u.u.s.7.s.w.w.7.7.<.4.8.A 6   ",
"O [ &X=X&X&X].|.[.[.L.J.H.J.H.H.H.C.l.z.t.9.j.9.9.9.9.7.7.4.5.5.5.5.E 5.5.5.5.6.6.6.5.3.3.3.1.5.5.1.5.3.3.3.3.6.7.7.2.4.V m 6   ",
"o [ .X&X:X=XoXXX}.|.L.I.H.H.I.F.A.A.Z.V.V.z.z.k.k.j.9.9.3.3.5.1.1.1.1.1.3.1.5.5.7.7.2.2.<.4.4.1.1.1.1.<.,.E 1.,.1.<.<.m t m 4   ",
"o u.|. X*X,X:X-XXX}.{.Y.I.D.F.A.A.A.C.V.V.k.k.k.9.8.4.1.1.1.>.1.3.5.1.1.2.3.2.7.2.8.3.2.4.4.<.<.<.2.<.1.<.,.1.D D S 0 9 n y , o ",
"o u.[.{. X-X,X:X%X X}.{.U.F.A.Z.V.V.k.y.y.j.t.t.9.2.1.1.>.>.E E 1.1.1.1.<.<.<.2.<.4.4.8.4.4.<.,.<.2.<.<.,.S S S D 8 5 7 8 t < o ",
"O a.!.!.{.}.%X;X;XOX}.}.Q.I.F.V.V.V.V.k.V.k.k.k.9.7.2.1.5.E A 1.E 1.1.>.>.,.>.,.<.<.4.4.4.4.<.,.1.<.<.D D S A S 7 5 7 7 7 8 > o ",
"o u.@XW.+X+X!.#X;X%X$X{.Q.T.H.Z.V.V.l.k.V.k.k.y.t.w.7.3.3.D E 1.3.1.1.1.,.>.>.S ,.,.,.1.1.<.<.<.<.<.<.,.D A S 8 5 7 7 7 7 r >   ",
"O s.@X+XU.U.U.W.#X>X>X%X}.{.I.F.Z.C.V.c.c.l.z.c.z.j.s.t.w.e.w.2.1.1.>.>.S ,.>.,.S ,.>.,.D D D D D D ,.,.S S 7 5 5 5 6 6 5 7 ; o ",
"o a.@XW.P.P.I.Y.W.#X>X-X X{.Q.I.S.c.m.c.x.x.x.z.z.s.7.4.4.4.4.<.1.,.,.D ,.,.<.S ,.D S S S C A A A S S S A 8 5 5 5 6 6 5 6 6 ; o ",
"o u.{.W.I.D.D.I.W.!.#XB.n.z.p.u.~ Q J J K K J B B m m q q q 0 0 0 0 0 0 0 0 0 0 0 0 0 0 9 7 0 8 9 0 0 0 : , 5 2 1 3 1 3 6 6 ;   ",
"o u.}.Y.H.H.H.J.Y.T.[.i._._.(./.~.:.:.R.~.~.~.:.;.~.;.;.;.-.;.-.*.*.*.*.*.*.*.*.*.+.%.*.*.-.-.=.=.%.+.+.$ 2 2 1 , , 1 < 1 3 ;   ",
"o [ [.Y.J.S.H.J.Y.Y.Y.i.`.).(.R.:.-.=.*.*.*.*.*.=.=.#.=.=.-.*.#.=.+.@.+.@.@.@.#.#.#.#.#.#.#.#.#.@.o.@.| $ 1 , ; > > > > < 2 &   ",
"o Q E.L.D.H.H.I.I.L.L.6.(.^.M.+.{ { b b b b ` ` / / / } { { { { ( { { { / { } } }  . .X.X.X.X.} ( ( T { $ , > ; & > > > > , &   ",
"o [ L.I.D.S.D.I.J.L.K.~ ^.N.+.v h i = = = = = i i h h j h j z j z z z z z z z j z z z z z v v z v Y Y Y # ; ; ; % & & ; ; > &   ",
"o L L.G.Z.c.C.C.G.S.m.E ~.=.} z + % O + @ + @ + O o O O o O O X . . . . . . . . . . o o X X + X x Y Y P $ ; ; ; & ; > ; > , &   ",
"o H K.C.V.z.j.c.c.c.z.S ~.M.X.j + % % % % % % @ # + + # # # + + + + O O O o O O O + # # # # $ X Y Y Y v $ > > > > > ; > > < &   ",
"o H m.C.z.j.9.t.t.t.e.V ;.v.X.z O % + % # # # + + + + + + + + + + + O o O o O O + + + + # # # X ( ( ( P % 1 , , , , , > < , %   ",
"o G m.c.j.7.7.4.8.4.9.V ;.#.( h X + O + + + + + O + # # # + + # # # # + + + + # # # # % % % % @ X._ Y P % 2 4 2 < , , > < 4 &   ",
"o G m.c.s.s.2.4.8.4.4.m -.#./ h o + O + + + + + + # # # # # # # $ # $ # # # # # $ & % & % - ; @ +.o.Y P - 5 6 2 1 1 , , , , &   ",
"o G G.z.j.7.4.4.8.4.8.V ;.#./ a O O O + + + # % $ $ & & % & % % & & & & % % % & & & & ; > : , $ o...! x : 7 6 5 4 1 1 , < < %   ",
"o G G.l.p.3.4.8.8.0.8.V ;.@.Y p O + + + # # % % & & & & & & & ; & > & & & & ; % ; > > ; ; , 1 % O.o.! k : 7 6 5 < 4 < > < 1 %   ",
"o H m.l.i.4.8.8.8.8.8.V -.@.Y u o + + + % % % & & ; & & ; & ; ; > & > > ; ; - ; ; ; ; > , 1 2 ; ..d.! x : 7 7 5 4 , 1 > < < &   ",
"o H c.z.s.9.8.8.4.8.8.V -.o.T u X + + % % % % ; % ; ; ; ; ; ; ; > ; & > & & ; & ; ; ; ; > , 4 ; _ d.! x , 8 7 6 4 , > , > , &   ",
"o G c.k.7.4.8.e.4.8.8.V -.@.Y e X + # % & % ; > > ; ; ; ; ; ; ; < & > > > ; ; > ; ; ; : > 2 6 ; _ q.! g : 8 6 6 1 , , > < 1 &   ",
"o G c.k.7.2.0.8.4.8.8.V -.@.Y u O # + % & ; > ; ; > > > ; > ; ; > > , , , , , , > > > > , 5 6 > ^ a.W g : 7 5 4 1 , 4 , 4 4 &   ",
"o G V.k.7.4.0.8.<.8.8.V -.@.Y u O + % % & & & > ; > ; ; > ; > > < > , , 1 1 1 , , > , , 1 5 7 > _ a.) g : 6 5 2 , , , 1 , 4 &   ",
"o G V.k.7.4.8.8.4.4.8.V -.o.Y u o + # # % & & > > ; ; ; ; ; > > , , 1 3 1 1 1 , , > , 1 5 6 6 , ~ q.! d : 6 5 , , , , 2 4 4 &   ",
"o B V.k.9.4.8.4.4.8.8.V -.o.Y u X + O % % % & > ; ; & ; ; ; > > , 1 4 3 1 1 , , > , > 1 5 5 7 > ~ q.U d : 5 4 2 , , < , 4 5 >   ",
"o B V.V.p.8.8.8.4.8.4.V -.o.Y u o O + + # % & & ; ; & & % ; > , 1 1 2 1 , > : > > > , , 2 6 7 , ^ q.U d ; 5 4 1 , < , 4 4 6 &   ",
"o N V.k.y.9.r.8.8.0.e.V -.o.P u o O O + # % > > ; ; & & ; > > 1 1 1 < , , , > > > , , , 2 6 6 > ^ q.U s ; 5 5 , , 4 , 4 4 6 &   ",
"X N l.k.t.0.y.8.4.e.0.C -.o.I w . o + # % ; > > > > ; ; ; , 1 1 1 2 , , , > < , , > , 1 5 6 6 > ^ q.U s ; 5 3 3 1 1 1 4 6 4 & o ",
"o N l.k.y.8.0.8.8.8.0.C -.+.I e . O O # & ; , , , > ; ; , , 1 1 5 1 1 , > , , , , , , 2 6 5 7 > ^ ^ U s , 5 6 3 1 1 < 6 6 6 ;   ",
"  m k.k.t.8.0.8.4.8.8.C =.+.I e o O + % & > , > > , , , , 1 1 6 4 1 , , , < , , 1 1 1 4 6 6 6 > ^ _ U s , 7 6 3 1 3 1 1 1 6 &   ",
"  N y.t.y.4.8.8.4.8.8.V =.O.I e o + # & ; > , > > ; ; ; , 1 1 4 6 1 , , 1 , , 1 1 6 5 6 6 5 7 , ^ 6.U s 1 7 6 3 1 1 1 1 4 4 &   ",
"o N y.k.y.4.8.e.4.0.8.V *.@.Y u . + $ & & ; > > ; ; > > , 1 1 3 1 1 , , , , 2 1 5 6 1 5 6 6 7 > W w.R s , 7 6 6 4 4 4 4 1 4 &   ",
"o m y.y.t.8.y.8.8.8.8.V =.@.T p . # $ & ; > > ; ; ; ; , , 1 1 3 1 , , , , , , 1 4 1 1 2 4 6 7 , ^ q.R d 2 7 7 6 6 4 , < < < &   ",
"o m j.y.e.8.y.8.8.8.8.V =.o.( a o # # & ; ; > ; ; > > , , 1 1 1 3 1 , , 1 , 2 1 1 1 1 1 6 6 7 , 6.q.W d : 7 5 5 1 1 < < < < &   ",
"o B y.y.y.8.y.0.8.4.4.V *.@.! s o # # & ; ; ; ; ; > , > < , , , , , , , , 2 , , 1 1 1 4 6 7 7 , ^ a.W d : 7 7 5 4 , > > > < &   ",
"o N y.V.y.8.y.e.4.<.4.V %.@.( z O # % & ; < ; < > > , , > , , > > , > , , , , , 2 1 2 3 6 r 7 < _ q.! d < 7 7 3 < , > & < < %   ",
"o N y.l.y.e.r.0.4.<.2.V =.g.) k O # # & ; ; < ; > , : , < > > > > , > , 1 , , , 1 3 6 5 6 7 7 > 6.a.~ d , 7 7 6 < , < & > & &   ",
". m y.y.y.8.r.e.<.<.<.V =.#._ x O $ % & > , < , < < < < , < , , , , : < < 1 1 1 1 1 1 5 7 7 7 , ^ d.~ d : 7 5 4 , > & < & & %   ",
"o n y.y.y.e.e.8.8.<.<.V =.g.X.P + $ & < 1 1 1 1 3 1 1 1 1 3 1 2 1 1 1 3 1 1 3 1 4 6 6 7 7 7 7 , ^ d.! d > 7 6 1 , > & & & & %   ",
"o t 4.r.y.8.0.8.2.<.4.V =.v.@.T @ & > 1 1 3 6 3 1 6 6 4 3 1 1 r 6 6 6 6 6 6 1 1 6 6 7 7 7 7 7 : ..d.! g - 5 3 < < & * & & & &   ",
"o t <.0.y.8.8.<.<.<.4.C =.M.v.| @ ; > , 1 3 6 6 6 6 r 1 r r 6 6 6 7 6 6 4 r r 6 r 7 7 7 r 7 7 , ^ d.! g ; 3 1 ; ; & & & < < &   ",
". t 4.4.0.4.4.4.<.<.8.V =.M.v.%.@ ; : < 1 1 1 3 3 6 3 6 1 r 6 6 7 7 7 r r 7 7 r 6 7 7 7 7 7 7 ; ..d.! k & 1 < > ; & & & & < &   ",
"  t 2.4.4.4.4.4.<.<.<.V =.v.v.=.X @ @ @ @ # # $ $ % & & & % ; ; & ; & ; & ; ; ; > > < , > > > # ..a.T g % , > > ; & & < < < &   ",
"o t 4.4.4.4.4.<.<.<.<.m @.v.#.@.@.+.*.*.#.-.M.M.M.b.f.$.f.a...a.f...a.a.] a...a.^ ] _ ......a.f..._ ! f % < ; ; > & > < , 4 &   ",
"  r 4.4.4.<.<.<.<.,.<.m | o.o.o.o.o.@.@.#.#.-.M.M.b.g.g.b.g.b.b.g.g.g.g.g.h.g.h.h.h.h.g.h.g.g.f...) I f % , < ; < < , , < 4 &   ",
"o r 4.4.4.4.<.2.,.,.,.m X.) ( ( ( ( / ( ( ( ( { ' ' ' } ' ' ' ( ' ' ' ' ' ) ' ' )  .] )  . .! T Y P P d % , ; < > < , , , 6 & o ",
"o 8 4.4.4.2.,.<.,.,.<.m c v z z z z j z z j j h h h a a p p p u p p u p p a a f f j f j j j j s d s u w + ; > > > , , < , 6 >   ",
"o 8 2.4.<.<.D ,.D ,.4.3 % , , : : - - % % % @ % $ $ $ $ $ $ $ $ # $ - - ; : : : ; : : ; > ; ; ; % - % + % ; , > , < 4 2 6 6 ;   ",
"o 8 4.2.<.,.S A S D 0 7 7 8 8 5 5 4 2 , , 4 , < < < , , > > > > > 1 1 3 7 5 3 6 5 5 7 5 5 5 3 2 , , > > ; ; ; > > > , < 4 7 , o ",
"o r 2.1.D D A A S 8 3 5 7 5 5 6 4 2 , , , , , < , , > ; > > > > , 1 3 3 7 6 7 6 5 6 5 5 2 5 1 1 > ; ; & & > ; > > < , 4 6 6 >   ",
"o 7 ,.,.D S A D 6 1 7 5 6 4 1 1 < & > , , , > , , > > > > ; , , , 3 3 3 3 3 3 6 3 3 7 6 6 1 1 , > > ; ; ; > ; > & < , 4 6 6 ,   ",
"  r ,.S A D ,.8 5 5 6 6 4 4 , , , < < , , < < < > > < & > ; , , , 1 3 3 3 1 3 1 6 3 6 1 1 , , > ; > > & ; ; ; > , , < 2 6 8 ,   ",
"o r ,.Z A <.8 5 6 6 6 6 , , < < , , , , , , < , > > ; < > , , , 1 3 3 3 1 1 3 3 6 2 1 1 2 , , > > < & & > > > > , , 4 6 7 8 ,   ",
"o t D Z D 0 5 8 8 6 6 , , < < < < , 4 < , , , , , > , , , , , 4 3 3 3 3 3 1 1 2 2 4 5 , 2 1 1 , & > > & > > , 4 , 2 4 6 8 r 4   ",
"o r D m 8 6 8 8 6 6 6 2 4 , , , 2 4 < 4 , 4 4 2 , , , , 4 , 4 4 1 6 3 3 6 3 3 3 5 6 5 6 2 2 , 1 > < > > > , 1 1 4 4 6 6 8 t 4   ",
"o r <.8 7 8 8 7 7 6 4 4 , 4 , 4 4 4 2 4 4 4 , 4 4 , 4 4 2 4 4 6 6 6 6 6 6 6 5 6 6 6 6 6 6 6 4 2 < < < 1 < 4 6 6 6 6 7 7 t t 2 . ",
"o t q t t r 8 8 7 6 6 6 , 4 4 4 4 6 4 6 6 4 6 6 6 4 2 4 6 5 6 6 8 7 6 6 6 7 6 7 7 7 7 8 7 6 6 6 6 4 6 6 6 6 6 6 6 r r 0 t m 1 o ",
"o & 1 , , < < < < & & & & & & > & ; & ; & ; & < & > & & & ; ; ; ; ; > > > > > > > > > , , ; > ; ; ; ; ; ; ; > > , > , < < 2 &   ",
"        o                           o                             o         . o                               o         o o     "
};
